<svg viewBox="0 0 512 512" xmlns="http://www.w3.org/2000/svg">
  <path d="M0 0 C0.96526611 0.00902344 1.93053223 0.01804687 2.92504883 0.02734375 C15.40954076 0.33012553 24.81924827 3.93775827 34.125 12.4375 C43.43308394 22.85166339 44.63094829 34.64043524 45.85351562 48.07226562 C46.85706465 57.72177547 49.00056304 68.32907301 56.125 75.4375 C59.07290232 77.73456674 62.08872994 79.92224867 65.11328125 82.1171875 C73.22994095 88.37048952 79.20515015 96.21607721 81.125 106.4375 C82.12432343 122.19732192 79.17265941 132.82501792 68.875 145.125 C64.93096197 150.33676454 64.3365945 156.10923183 65.125 162.4375 C66.85787745 169.97750112 71.62963341 174.19109617 77.37109375 179.078125 C86.32257473 186.74719523 93.59645961 195.68916684 96.125 207.4375 C97.34683477 223.30786973 96.39370683 235.93569743 86.4609375 248.859375 C77.45607721 258.79784957 67.06120535 262.85025893 54.125 265.4375 C38.945 265.4375 23.765 265.4375 8.125 265.4375 C8.125 302.3975 8.125 339.3575 8.125 377.4375 C2.845 377.4375 -2.435 377.4375 -7.875 377.4375 C-7.875 340.4775 -7.875 303.5175 -7.875 265.4375 C-23.055 265.4375 -38.235 265.4375 -53.875 265.4375 C-70.71873187 261.22656703 -81.9502687 256.22888271 -91.33203125 241.4765625 C-95.19558626 233.86682629 -96.40532073 227.06885712 -96.3125 218.5625 C-96.30492676 217.59159424 -96.29735352 216.62068848 -96.28955078 215.62036133 C-96.02997051 204.34567242 -92.6282509 196.38555745 -85.875 187.4375 C-85.25496094 186.60863281 -84.63492188 185.77976563 -83.99609375 184.92578125 C-81.82342375 182.37699527 -79.60769056 180.51190013 -76.9375 178.5 C-70.47006881 173.42320939 -65.67492555 168.93535674 -64.62109375 160.375 C-64.16106785 151.82742197 -67.46181113 145.95531446 -72.875 139.5625 C-80.64555813 130.09575661 -81.97190283 120.30860775 -81.09814453 108.41015625 C-79.77982547 96.75586957 -72.49347181 88.29659097 -63.8515625 80.97265625 C-62.03800906 79.56410585 -60.18886032 78.35066721 -58.25 77.125 C-51.86783278 72.699836 -48.37993893 64.86838651 -46.875 57.4375 C-46.03582851 51.46059214 -45.35739818 45.46120032 -44.7265625 39.45898438 C-43.39237015 28.59888479 -39.98103691 18.1832686 -31.875 10.4375 C-21.86241408 2.92806056 -12.46269103 -0.1399688 0 0 Z " fill="#000000" transform="matrix(1, 0, 0, 1, 255.875, 15.562500000000002)"/>
  <path d="M0 0 C5.42553354 3.07912113 9.04944718 6.93644701 11.9375 12.4375 C12.80164816 15.57985694 13.24457716 18.70390587 13.625 21.9375 C14.40101563 22.07285156 15.17703125 22.20820313 15.9765625 22.34765625 C32.4112026 25.62281722 46.55714925 33.68348514 56.7421875 47.10546875 C62.6841471 56.04306358 68.625 66.96078191 68.625 77.9375 C69.181875 77.95167969 69.73875 77.96585937 70.3125 77.98046875 C77.49163845 78.4291649 82.56840103 80.52872767 87.421875 85.94140625 C93.22380309 93.44247042 93.59317423 100.69329799 92.625 109.9375 C90.22510904 116.5971974 85.98857767 121.76954503 79.625 124.9375 C75.64913707 126.35263765 72.85294907 126.9375 68.625 126.9375 C68.625 132.2175 68.625 137.4975 68.625 142.9375 C71.595 143.9275 71.595 143.9275 74.625 144.9375 C79.67308712 148.37019924 82.96729227 151.96788959 84.625 157.9375 C85.52462532 165.80463162 85.72903243 173.50133007 80.625 179.9375 C77.48970756 183.32331217 74.92749996 185.63692309 70.375 186.6875 C67.51132803 187.61430729 67.51132803 187.61430729 66.83203125 189.81640625 C66.3779561 191.53088395 65.93639034 193.24869898 65.50390625 194.96875 C60.34389378 212.39812546 45.59641747 227.43282687 30.11962891 236.20141602 C9.90721726 247.17087621 -12.12688244 249.81200295 -34.375 243.9375 C-56.13956475 237.11793638 -73.14442134 223.83010648 -84.375 203.9375 C-87.04339726 198.69723666 -89.39322942 193.76545728 -90.375 187.9375 C-91.220625 187.73125 -92.06625 187.525 -92.9375 187.3125 C-99.1616761 184.82282956 -103.96496761 180.59644737 -106.71484375 174.40625 C-108.49947929 167.73234668 -108.63989159 159.85599833 -105.875 153.4375 C-102.56614673 147.9424401 -97.50389671 144.46972418 -91.375 142.9375 C-91.375 137.6575 -91.375 132.3775 -91.375 126.9375 C-93.169375 126.7828125 -93.169375 126.7828125 -95 126.625 C-101.83512134 125.75704808 -107.41868023 122.53543862 -111.796875 117.20703125 C-116.42366099 110.27984886 -116.32231945 103.01652628 -115.375 94.9375 C-113.72200622 88.63667666 -109.68718569 84.51987733 -104.375 80.9375 C-100.1025562 78.47620085 -96.33017656 77.57492611 -91.375 77.9375 C-91.28863281 77.28265625 -91.20226562 76.6278125 -91.11328125 75.953125 C-89.27797217 64.0320348 -84.73384948 54.43650704 -77.375 44.9375 C-76.41400391 43.67873047 -76.41400391 43.67873047 -75.43359375 42.39453125 C-65.59712521 30.65423009 -51.15219954 24.51491852 -36.375 21.9375 C-36.30023438 21.3084375 -36.22546875 20.679375 -36.1484375 20.03125 C-34.98408967 12.45157391 -32.50953138 7.07943122 -26.30859375 2.3671875 C-18.13261524 -2.90278023 -9.05525504 -4.1909754 0 0 Z " fill="#000000" transform="matrix(1, 0, 0, 1, 131.375, 250.0625)"/>
  <path d="M0 0 C1.34774506 0.3657589 1.34774506 0.3657589 2.72271729 0.73890686 C5.66876998 1.54096969 8.61067002 2.3572688 11.55273438 3.17382812 C13.60372117 3.73521933 15.65495398 4.29571251 17.7064209 4.85534668 C23.08793733 6.32598937 28.46603709 7.80876394 33.84350586 9.29412842 C39.33831251 10.80957652 44.83627746 12.31347384 50.33398438 13.81835938 C61.10793209 16.7693313 71.87830405 19.73313528 82.64648438 22.70507812 C82.71655968 32.05983969 82.76958351 41.41450838 82.80192089 50.76947689 C82.81745548 55.1152123 82.838465 59.46076575 82.87280273 63.80639648 C82.90583884 68.01451419 82.92342864 72.22245893 82.9311161 76.43069649 C82.93658148 78.02154825 82.94724871 79.61239252 82.96367455 81.20316887 C83.34369753 119.59826302 67.47719147 154.33771198 41.36523438 182.02539062 C37.05323125 186.27543968 32.47489793 190.05898871 27.64648438 193.70507812 C26.87046875 194.29675781 26.09445312 194.8884375 25.29492188 195.49804688 C-3.0415487 216.20546768 -3.0415487 216.20546768 -16.35351562 214.70507812 C-19.62734579 213.6161852 -22.72677596 212.22052958 -25.85351562 210.76757812 C-26.73700684 210.36224854 -27.62049805 209.95691895 -28.53076172 209.53930664 C-40.19756125 204.05745684 -50.57508439 197.11729212 -60.35351562 188.70507812 C-61.30871094 187.89554688 -62.26390625 187.08601562 -63.24804688 186.25195312 C-71.00822935 179.51677134 -77.37556852 172.04714623 -83.35351562 163.70507812 C-83.7516748 163.14981445 -84.14983398 162.59455078 -84.56005859 162.02246094 C-101.7311794 137.64450913 -109.74944697 109.99094086 -109.54882812 80.34570312 C-109.54508893 78.70375747 -109.54224625 77.06180955 -109.54025269 75.41986084 C-109.5326875 71.13901395 -109.51310188 66.85830699 -109.49084473 62.57751465 C-109.47023127 58.19297172 -109.46121813 53.80840575 -109.45117188 49.42382812 C-109.42984784 40.85084789 -109.39580004 32.27798051 -109.35351562 23.70507812 C-103.9111314 21.59234821 -98.48873564 19.79802628 -92.86132812 18.25317383 C-92.05371033 18.02840363 -91.24609253 17.80363342 -90.41400146 17.572052 C-87.76995178 16.83756758 -85.12438699 16.10875222 -82.47851562 15.38085938 C-80.62580532 14.86951214 -78.77310364 14.35813366 -76.92041016 13.84672546 C-73.04797503 12.77901309 -69.17463445 11.71465457 -65.30078125 10.65209961 C-60.34875321 9.29307062 -55.40039516 7.92115153 -50.45278931 6.54612446 C-46.63186518 5.48660595 -42.80845674 4.43628418 -38.98431396 3.38844872 C-37.15903401 2.88666576 -35.33467437 2.38152198 -33.5112915 1.87288857 C-30.95864766 1.16181556 -28.4027583 0.46381506 -25.84570312 -0.23120117 C-25.10157166 -0.44155502 -24.35744019 -0.65190887 -23.59075928 -0.86863708 C-15.12970968 -3.13526113 -8.3008233 -2.33368288 0 0 Z " transform="matrix(1, 0, 0, 1, 413.35351562500006, 282.294921875)" fill="#9AA2A6"/>
  <path d="M0 0 C6.1654017 4.17350269 10.11193536 8.71600772 11.66015625 16.18457031 C11.79292969 17.30444336 11.92570312 18.42431641 12.0625 19.578125 C12.21976562 20.82207031 12.37703125 22.06601562 12.5390625 23.34765625 C12.69117188 24.63542969 12.84328125 25.92320313 13 27.25 C14.94791148 43.54312398 17.79088796 58.94308544 31 70 C32.49366701 71.15407664 33.99393939 72.29964436 35.5 73.4375 C40.99087035 77.61431591 47.45925123 82.98103339 49 90 C49.95489944 97.57856702 48.24787658 104.73771813 43.57421875 110.87109375 C42.56941618 111.99533022 41.55244002 113.1088079 40.5234375 114.2109375 C32.3173276 123.84785631 32.03253901 134.91484483 33 147 C35.37271304 159.12084735 43.06002241 166.43365965 52.41015625 173.80859375 C58.91293293 179.31094325 63.42002947 186.25874091 64.46875 194.83203125 C64.54543983 204.60039866 63.68454697 211.70683078 57.015625 219.2421875 C49.68963574 226.33436859 41.72326635 229.4563873 31.54867554 229.45318604 C30.55034698 229.43254089 29.55201843 229.41189575 28.5234375 229.390625 C26.94654648 229.38213531 26.94654648 229.38213531 25.33779907 229.37347412 C22.016381 229.35128043 18.69608591 229.30111589 15.375 229.25 C13.10808862 229.22991303 10.84116014 229.21166614 8.57421875 229.1953125 C3.04910315 229.15147179 -2.47536816 229.08473273 -8 229 C-8.35922831 224.53702413 -8.35922831 224.53702413 -6.78515625 222.18388367 C-6.21667969 221.62651016 -5.64820313 221.06913666 -5.0625 220.49487305 C-4.42183594 219.85458664 -3.78117187 219.21430023 -3.12109375 218.55461121 C-2.42113281 217.8804567 -1.72117187 217.20630219 -1 216.51171875 C-0.28972656 215.80852005 0.42054688 215.10532135 1.15234375 214.3808136 C3.42343448 212.13770925 5.71128892 209.91260911 8 207.6875 C9.54280299 206.16977403 11.08448429 204.65090692 12.625 203.13085938 C16.40375106 199.40723412 20.19641393 195.69824408 24 192 C22.49053489 188.81913482 20.92058175 186.70130094 18.375 184.25 C17.42753906 183.32960937 17.42753906 183.32960937 16.4609375 182.390625 C15.97882813 181.93171875 15.49671875 181.4728125 15 181 C9.75320692 185.37459891 4.90605827 189.99945441 0.125 194.875 C-1.20345033 196.22880243 -2.53405617 197.58049435 -3.8671875 198.9296875 C-4.44581543 199.51991699 -5.02444336 200.11014648 -5.62060547 200.71826172 C-7 202 -7 202 -8 202 C-12.80322049 165.12604581 -12.80322049 165.12604581 -3.57330322 153.07006836 C3.3399455 145.06370609 11.51913049 138.28170787 20 132 C18.49053489 128.81913482 16.92058175 126.70130094 14.375 124.25 C13.74335938 123.63640625 13.11171875 123.0228125 12.4609375 122.390625 C11.97882813 121.93171875 11.49671875 121.4728125 11 121 C5.90595257 125.188439 1.24559927 129.67614119 -3.35473633 134.3918457 C-4.55264448 135.6116758 -5.77423462 136.80816585 -7 138 C-7.33 138 -7.66 138 -8 138 C-11.43087178 107.69220656 -11.43087178 107.69220656 -4.83807373 98.81164551 C0.02206782 93.08056108 5.87949061 88.32179586 12 84 C10.49053489 80.81913482 8.92058175 78.70130094 6.375 76.25 C5.74335938 75.63640625 5.11171875 75.0228125 4.4609375 74.390625 C3.97882813 73.93171875 3.49671875 73.4728125 3 73 C2.54109375 73.39832031 2.0821875 73.79664062 1.609375 74.20703125 C0.68898438 75.00173828 0.68898438 75.00173828 -0.25 75.8125 C-0.85328125 76.33457031 -1.4565625 76.85664062 -2.078125 77.39453125 C-3.99725255 78.99770487 -5.99948547 80.4996141 -8 82 C-8 64.84 -8 47.68 -8 30 C-13.28 30 -18.56 30 -24 30 C-24 57.72 -24 85.44 -24 114 C-28.14438932 110.4476663 -32.03046031 107.09346755 -35.83984375 103.2578125 C-36.67451172 102.41992188 -37.50917969 101.58203125 -38.36914062 100.71875 C-39.21669922 99.8628125 -40.06425781 99.006875 -40.9375 98.125 C-41.81212891 97.24585938 -42.68675781 96.36671875 -43.58789062 95.4609375 C-45.72757048 93.3095654 -47.86486597 91.15588208 -50 89 C-51.1055189 89.93590504 -52.20935453 90.87379858 -53.3125 91.8125 C-53.92738281 92.33457031 -54.54226562 92.85664062 -55.17578125 93.39453125 C-56.85424679 94.87172469 -58.43882034 96.40039131 -60 98 C-58.66161315 101.09087764 -57.34930773 102.78276463 -54.65185547 104.78173828 C-25.30883373 127.24504622 -25.30883373 127.24504622 -22.3984375 142.5 C-20.64403657 156.90102418 -22.03751556 171.68043402 -24 186 C-25.10338218 185.0636169 -26.20541029 184.12563812 -27.30688477 183.18701172 C-27.92072525 182.66485077 -28.53456573 182.14268982 -29.16700745 181.60470581 C-31.87952853 179.23001076 -34.41223193 176.69567399 -36.9375 174.125 C-37.43056641 173.62742188 -37.92363281 173.12984375 -38.43164062 172.6171875 C-39.62345992 171.41379715 -40.81208678 170.20724635 -42 169 C-43.1055189 169.93590504 -44.20935453 170.87379858 -45.3125 171.8125 C-45.92738281 172.33457031 -46.54226562 172.85664063 -47.17578125 173.39453125 C-48.85424679 174.87172469 -50.43882034 176.40039131 -52 178 C-50.42600971 182.14767713 -47.38099752 184.52142516 -44.1171875 187.33984375 C-42.93591488 188.41284565 -41.75762292 189.48913636 -40.58203125 190.56835938 C-38.74430082 192.25331111 -36.9010373 193.91544316 -34.99853516 195.52709961 C-28.88216219 200.74059477 -23.92396809 205.20880233 -23.19628906 213.56298828 C-23.06689026 218.74179122 -23.38375374 223.85873889 -24 229 C-30.52865035 229.07645954 -37.05718396 229.12877088 -43.58618164 229.16479492 C-45.8043245 229.17982277 -48.02243793 229.20025077 -50.24047852 229.22631836 C-53.44034108 229.26296624 -56.63980861 229.27978688 -59.83984375 229.29296875 C-60.82145981 229.30845261 -61.80307587 229.32393646 -62.81443787 229.33988953 C-72.76604016 229.34228767 -80.67794925 226.87502029 -88 220 C-94.88533136 212.21392685 -96.75781431 205.56233269 -96.4296875 195.1484375 C-95.78041856 186.35306133 -91.42782912 179.96555389 -85.0625 174.125 C-83.39273582 172.72851554 -81.7063495 171.35153714 -80 170 C-72.13555968 163.76006762 -66.07273379 156.01009114 -64.69677734 145.73583984 C-64.56319895 143.35694379 -64.53201813 141.00738646 -64.5625 138.625 C-64.57079834 137.78791504 -64.57909668 136.95083008 -64.58764648 136.08837891 C-64.86178343 126.05750325 -67.99677759 119.78207915 -74.3203125 112.1015625 C-79.21586222 105.97643285 -81.40148128 100.17785807 -81.2734375 92.3671875 C-80.40883311 84.88218376 -75.48538618 79.73453484 -70 75 C-68.33845531 73.70175126 -66.67151328 72.41038863 -65 71.125 C-50.21647411 59.4148323 -46.83055034 43.68739074 -44.74804688 25.84082031 C-44.63299805 24.80973145 -44.63299805 24.80973145 -44.515625 23.7578125 C-43.48178043 14.75623481 -42.50236379 9.10245158 -35.75 2.75 C-25.85219422 -5.04321971 -11.24051736 -5.53259433 0 0 Z " transform="matrix(1, 0, 0, 1, 272, 35)" style="fill: rgb(163, 182, 118);"/>
  <path d="M0 0 C42.24 0 84.48 0 128 0 C128 10.56 128 21.12 128 32 C131.63 32 135.26 32 139 32 C142.1875 33.625 142.1875 33.625 144 36 C144.6875 38.9375 144.6875 38.9375 144 42 C140.86466962 45.2920969 138.18069908 46.95170855 134.00390625 48.61328125 C129.81976058 50.67888434 128.64196559 52.86645489 127.16479492 57.19335938 C126.9247876 57.97517578 126.68478027 58.75699219 126.4375 59.5625 C125.86786527 61.19179533 125.28972027 62.81814011 124.703125 64.44140625 C124.42017578 65.22660645 124.13722656 66.01180664 123.84570312 66.82080078 C117.78032525 82.45000486 104.06668212 92.68456451 89.5 99.8125 C74.43186665 106.22806378 55.51026407 106.43288364 40.28515625 100.46875 C39.20105469 99.9840625 38.11695313 99.499375 37 99 C36.02933594 98.5771875 35.05867188 98.154375 34.05859375 97.71875 C18.10034333 89.9098764 6.84025782 75.50507644 1 59 C0.80792969 58.23300781 0.61585937 57.46601563 0.41796875 56.67578125 C-0.55008099 53.01947828 -1.31286072 51.46695688 -4.5234375 49.28515625 C-6.45773202 48.24693255 -8.41874001 47.2565319 -10.40625 46.32421875 C-12.83395132 45.08477485 -14.33064022 44.13063025 -16 42 C-16.5 39.0625 -16.5 39.0625 -16 36 C-14.1875 33.625 -14.1875 33.625 -11 32 C-7.37 32 -3.74 32 0 32 C0 21.44 0 10.88 0 0 Z " fill="#A7B2B9" transform="matrix(1, 0, 0, 1, 56.000000000000014, 376)"/>
  <path d="M0 0 C1.34774506 0.3657589 1.34774506 0.3657589 2.72271729 0.73890686 C5.66876998 1.54096969 8.61067002 2.3572688 11.55273438 3.17382812 C13.60372117 3.73521933 15.65495398 4.29571251 17.7064209 4.85534668 C23.08793733 6.32598937 28.46603709 7.80876394 33.84350586 9.29412842 C39.33831251 10.80957652 44.83627746 12.31347384 50.33398438 13.81835938 C61.10793209 16.7693313 71.87830405 19.73313528 82.64648438 22.70507812 C82.71655968 32.05983969 82.76958351 41.41450838 82.80192089 50.76947689 C82.81745548 55.1152123 82.838465 59.46076575 82.87280273 63.80639648 C82.90583884 68.01451419 82.92342864 72.22245893 82.9311161 76.43069649 C82.93658148 78.02154825 82.94724871 79.61239252 82.96367455 81.20316887 C83.34369753 119.59826302 67.47719147 154.33771198 41.36523438 182.02539062 C37.05323125 186.27543968 32.47489793 190.05898871 27.64648438 193.70507812 C26.87046875 194.29675781 26.09445312 194.8884375 25.29492188 195.49804688 C-3.0415487 216.20546768 -3.0415487 216.20546768 -16.35351562 214.70507812 C-19.62734579 213.6161852 -22.72677596 212.22052958 -25.85351562 210.76757812 C-26.73700684 210.36224854 -27.62049805 209.95691895 -28.53076172 209.53930664 C-40.19756125 204.05745684 -50.57508439 197.11729212 -60.35351562 188.70507812 C-61.30871094 187.89554688 -62.26390625 187.08601562 -63.24804688 186.25195312 C-71.00822935 179.51677134 -77.37556852 172.04714623 -83.35351562 163.70507812 C-83.7516748 163.14981445 -84.14983398 162.59455078 -84.56005859 162.02246094 C-101.7311794 137.64450913 -109.74944697 109.99094086 -109.54882812 80.34570312 C-109.54508893 78.70375747 -109.54224625 77.06180955 -109.54025269 75.41986084 C-109.5326875 71.13901395 -109.51310188 66.85830699 -109.49084473 62.57751465 C-109.47023127 58.19297172 -109.46121813 53.80840575 -109.45117188 49.42382812 C-109.42984784 40.85084789 -109.39580004 32.27798051 -109.35351562 23.70507812 C-103.9111314 21.59234821 -98.48873564 19.79802628 -92.86132812 18.25317383 C-92.05371033 18.02840363 -91.24609253 17.80363342 -90.41400146 17.572052 C-87.76995178 16.83756758 -85.12438699 16.10875222 -82.47851562 15.38085938 C-80.62580532 14.86951214 -78.77310364 14.35813366 -76.92041016 13.84672546 C-73.04797503 12.77901309 -69.17463445 11.71465457 -65.30078125 10.65209961 C-60.34875321 9.29307062 -55.40039516 7.92115153 -50.45278931 6.54612446 C-46.63186518 5.48660595 -42.80845674 4.43628418 -38.98431396 3.38844872 C-37.15903401 2.88666576 -35.33467437 2.38152198 -33.5112915 1.87288857 C-30.95864766 1.16181556 -28.4027583 0.46381506 -25.84570312 -0.23120117 C-25.10157166 -0.44155502 -24.35744019 -0.65190887 -23.59075928 -0.86863708 C-15.12970968 -3.13526113 -8.3008233 -2.33368288 0 0 Z M-25.41601562 16.83007812 C-27.01604605 17.29311319 -28.61631756 17.7553158 -30.21679688 18.21679688 C-31.0542041 18.46091309 -31.89161133 18.7050293 -32.75439453 18.95654297 C-37.19071317 20.23418273 -41.64765585 21.43522986 -46.10351562 22.64257812 C-47.96293282 23.14893362 -49.82230743 23.65544553 -51.68164062 24.16210938 C-55.50422248 25.20240717 -59.32723158 26.24112254 -63.15039062 27.27929688 C-64.58366699 27.66903687 -64.58366699 27.66903687 -66.04589844 28.06665039 C-67.83670278 28.55359345 -69.62769879 29.03983255 -71.41894531 29.52514648 C-78.74942734 31.51915652 -86.05224704 33.60708851 -93.35351562 35.70507812 C-93.40477045 43.10250851 -93.43947877 50.49989209 -93.46337891 57.89746094 C-93.47335624 60.40724397 -93.4869429 62.91701562 -93.50439453 65.42675781 C-93.77429807 90.84450747 -93.77429807 90.84450747 -88.72851562 115.64257812 C-88.47054199 116.47466797 -88.21256836 117.30675781 -87.94677734 118.1640625 C-76.90656185 152.42455424 -52.82478851 178.17196196 -21.35351562 194.70507812 C-20.58910156 195.18074219 -19.8246875 195.65640625 -19.03710938 196.14648438 C-16.5339091 197.43370881 -15.18549759 197.8361884 -12.35351562 197.70507812 C-6.66919734 195.61525523 -1.55186991 192.78771425 3.64648438 189.70507812 C4.66613281 189.11597656 5.68578125 188.526875 6.73632812 187.91992188 C34.7036026 170.94695616 54.82437451 143.31144269 63.33398438 111.83007812 C67.02063707 95.29651182 66.88620319 79.14531389 66.77148438 62.26757812 C66.76143443 59.68620139 66.75231215 57.10482087 66.74414062 54.5234375 C66.72228707 48.25056731 66.68896913 41.97784076 66.64648438 35.70507812 C55.11825384 32.37405596 43.59149315 29.09212137 31.95898438 26.14257812 C24.16912843 24.1453493 16.3911211 22.12157349 8.64648438 19.95507812 C7.92847656 19.75495117 7.21046875 19.55482422 6.47070312 19.34863281 C3.42545661 18.49648286 0.38623373 17.62820694 -2.64648438 16.73242188 C-3.60167969 16.45527344 -4.556875 16.178125 -5.54101562 15.89257812 C-6.31832031 15.65925781 -7.095625 15.4259375 -7.89648438 15.18554688 C-14.10206805 13.97205436 -19.4627708 15.03726341 -25.41601562 16.83007812 Z " fill="#000000" transform="matrix(1, 0, 0, 1, 413.35351562500006, 282.294921875)"/>
  <path d="M0 0 C5.92909506 0.5861719 11.31580266 1.80404381 17 3.5625 C17.77472656 3.79646484 18.54945313 4.03042969 19.34765625 4.27148438 C21.2335214 4.84190038 23.1170209 5.42012803 25 6 C25.05119059 13.55815703 25.08593706 21.11626849 25.10986328 28.67456055 C25.11984994 31.23968171 25.13344392 33.8047917 25.15087891 36.36987305 C25.41890261 76.84933518 16.00149303 111.71351148 -12.75 141.1875 C-23.62796891 151.92170721 -36.03383846 159.88309719 -50 166 C-50.9796875 166.47566406 -51.959375 166.95132813 -52.96875 167.44140625 C-57.4469002 168.26663238 -60.07044722 166.53352521 -63.9375 164.375 C-64.61490234 164.01792969 -65.29230469 163.66085937 -65.99023438 163.29296875 C-70.38174608 160.96037289 -74.69200589 158.48257288 -79 156 C-76.2046217 152.56029691 -73.48401416 149.40162877 -70.0625 146.5625 C-66.96949183 143.97447275 -64.49483185 141.26406107 -61.89453125 138.19921875 C-60.63332324 136.73517729 -59.33845457 135.29946368 -58.01171875 133.89453125 C-38.49975038 113.16975315 -23.60766869 86.69823318 -14 60 C-20.78339782 65.70420004 -27.03613274 71.90586219 -33.28125 78.18359375 C-34.34576772 79.24998085 -35.41050962 80.31614419 -36.47546387 81.38209534 C-39.25263833 84.16305407 -42.02679425 86.94700444 -44.80029297 89.73162842 C-47.64105638 92.5826948 -50.48471872 95.43086669 -53.328125 98.27929688 C-58.8882283 103.85006518 -64.44514018 109.42400319 -70 115 C-74.12390399 113.1068216 -76.93280604 110.32174632 -80.078125 107.1171875 C-80.64956238 106.54292023 -81.22099976 105.96865295 -81.80975342 105.37698364 C-83.62792945 103.5476419 -85.43901492 101.71145807 -87.25 99.875 C-88.48391329 98.63105226 -89.71828322 97.3875573 -90.953125 96.14453125 C-93.97406743 93.10157633 -96.98867092 90.05246746 -100 87 C-98.39464713 83.58940597 -96.59481099 81.38207516 -93.875 78.75 C-93.15054687 78.04359375 -92.42609375 77.3371875 -91.6796875 76.609375 C-90.84824219 75.81273437 -90.84824219 75.81273437 -90 75 C-83.58930713 80.27101414 -77.81409488 86.09128152 -72 92 C-67.79540551 90.34835136 -64.93829092 87.25548713 -61.79443359 84.13256836 C-61.18258713 83.532258 -60.57074066 82.93194763 -59.94035339 82.31344604 C-57.92062301 80.32799049 -55.90884304 78.33473852 -53.8984375 76.33984375 C-53.20955067 75.65785982 -52.52066383 74.97587589 -51.81090164 74.27322578 C-48.16540356 70.66354807 -44.52608078 67.04777268 -40.89160156 63.42700195 C-37.14295985 59.69490538 -33.37384942 55.9842232 -29.59955406 52.27809811 C-26.69500348 49.41839309 -23.80623349 46.54313298 -20.92146683 43.66348457 C-19.53905925 42.28895738 -18.15079301 40.92029566 -16.75654221 39.55778313 C-14.80299516 37.64580354 -12.87291076 35.71273492 -10.94677734 33.77319336 C-10.37115555 33.21959641 -9.79553375 32.66599945 -9.20246887 32.09562683 C-5.00551429 27.79903212 -3.81999892 23.88557901 -3 18 C-2.7512915 16.67633423 -2.7512915 16.67633423 -2.49755859 15.32592773 C-2.38234863 14.61895752 -2.26713867 13.9119873 -2.1484375 13.18359375 C-2.01953125 12.40048828 -1.890625 11.61738281 -1.7578125 10.81054688 C-1.63148438 10.02744141 -1.50515625 9.24433594 -1.375 8.4375 C-1.2409375 7.61958984 -1.106875 6.80167969 -0.96875 5.95898438 C-0.64356392 3.97302652 -0.32145079 1.98656588 0 0 Z " transform="matrix(1, 0, 0, 1, 455.00000000000006, 312)" fill="#7B8185"/>
  <path d="M0 0 C24.35783914 7.37471694 46.39275287 19.77854039 66 36 C66.55171875 36.44633789 67.1034375 36.89267578 67.671875 37.35253906 C109.48463847 71.23123649 135.95827844 122.21163985 141.7875824 175.53277588 C142.13600329 179.57967411 142.1426575 183.612308 142.1328125 187.671875 C142.13376923 188.55731995 142.13472595 189.44276489 142.13571167 190.3550415 C142.13638721 192.21049064 142.13457698 194.06594223 142.13037109 195.92138672 C142.12498815 198.75623865 142.13035051 201.590934 142.13671875 204.42578125 C142.13605836 206.23697951 142.134778 208.04817768 142.1328125 209.859375 C142.13483673 210.70216003 142.13686096 211.54494507 142.13894653 212.41326904 C142.13421829 213.60040497 142.13421829 213.60040497 142.12939453 214.81152344 C142.12859894 215.50163513 142.12780334 216.19174683 142.12698364 216.902771 C142 219 142 219 141 224 C135.39 223.34 129.78 222.68 124 222 C124.02094727 220.82308594 124.04189453 219.64617187 124.06347656 218.43359375 C124.85730225 186.46808549 124.85730225 186.46808549 120 155 C119.78569336 154.14583496 119.57138672 153.29166992 119.35058594 152.41162109 C106.8764165 104.30345237 77.0808158 61.38193652 34.1484375 35.6484375 C21.66316185 28.38509318 8.53474986 22.05474688 -5 17 C-3.83348574 11.07136283 -2.24480642 5.61201606 0 0 Z " transform="matrix(1, 0, 0, 1, 322, 58)" style="fill: rgb(225, 72, 37);"/>
  <path d="M0 0 C2.48659621 2.48659621 3.0343111 4.60483946 4.125 7.9375 C4.65480469 9.52884766 4.65480469 9.52884766 5.1953125 11.15234375 C6 14 6 14 6 17 C5.46334717 17.22026855 4.92669434 17.44053711 4.3737793 17.66748047 C-46.43984206 38.65325253 -87.21950119 72.44368107 -108.87597656 124.05859375 C-117.066861 144.21625015 -122.81225624 165.58846806 -123.31640625 187.4375 C-123.33718735 188.20304199 -123.35796844 188.96858398 -123.37937927 189.75732422 C-123.44408136 192.1714698 -123.50338541 194.58571181 -123.5625 197 C-123.60576095 198.64974903 -123.64937748 200.29948878 -123.69335938 201.94921875 C-123.79967969 205.96605033 -123.90116345 209.98297759 -124 214 C-127.60993172 215.13480527 -130.9842327 215.10015767 -134.75 215.0625 C-135.92046875 215.05347656 -137.0909375 215.04445313 -138.296875 215.03515625 C-139.18890625 215.02355469 -140.0809375 215.01195312 -141 215 C-142.19836144 156.6351887 -128.7569467 101.89833277 -88.00390625 58.15625 C-86.14217233 56.15298076 -84.3826884 54.09426703 -82.625 52 C-61.46051134 27.82588222 -30.28448078 10.09482693 0 0 Z " transform="matrix(1, 0, 0, 1, 189.00000000000003, 58)" style="fill: rgb(225, 72, 37);"/>
  <path d="M0 0 C3.37989338 1.24909103 4.69890435 2.18830273 6.875 5.0625 C7.22423596 7.88267427 7.34349209 10.29970263 7.265625 13.109375 C7.25996521 13.88057678 7.25430542 14.65177856 7.24847412 15.4463501 C7.22613589 17.90237279 7.17594763 20.35692055 7.125 22.8125 C7.10493154 24.48044763 7.08668137 26.14841821 7.0703125 27.81640625 C7.02968511 31.8994587 6.95140019 35.97933455 6.875 40.0625 C12.155 40.0625 17.435 40.0625 22.875 40.0625 C22.875 35.1125 22.875 30.1625 22.875 25.0625 C36.30618022 27.44545133 47.09825101 33.83218558 55.0546875 45.16796875 C58.69114571 51.24130663 61.875 56.84952638 61.875 64.0625 C20.295 64.0625 -21.285 64.0625 -64.125 64.0625 C-62.27479443 51.11106102 -55.79096016 41.00249837 -45.453125 32.9921875 C-39.48892142 28.96550768 -32.53418441 25.0625 -25.125 25.0625 C-25.125 30.0125 -25.125 34.9625 -25.125 40.0625 C-19.845 40.0625 -14.565 40.0625 -9.125 40.0625 C-9.19460937 37.59394531 -9.26421875 35.12539063 -9.3359375 32.58203125 C-9.38277306 30.18258283 -9.4191795 27.78318594 -9.45458984 25.38354492 C-9.48470545 23.71990043 -9.5256085 22.05641398 -9.57763672 20.39331055 C-9.65069321 17.99748746 -9.68450481 15.60376747 -9.7109375 13.20703125 C-9.74190521 12.4672554 -9.77287292 11.72747955 -9.80477905 10.96528625 C-9.80664581 8.08042403 -9.67824654 5.76800338 -7.85919189 3.44833374 C-5.18333305 1.08590066 -3.60615685 0.07212314 0 0 Z " transform="matrix(1, 0, 0, 1, 121.125, 263.9375)" style="fill: rgb(251, 196, 110);"/>
  <path d="M0 0 C0.67059574 -0.00779995 1.34119148 -0.01559991 2.03210831 -0.02363622 C4.26644005 -0.04349005 6.49905581 -0.02782019 8.73339844 -0.01205444 C10.34030141 -0.0188336 11.94719661 -0.02773841 13.55407715 -0.03860474 C17.90955205 -0.06136951 22.26443376 -0.05257361 26.61991882 -0.03670931 C31.18152444 -0.02403561 35.74307985 -0.0357945 40.3046875 -0.04364014 C47.96461083 -0.05273243 55.62429299 -0.04075987 63.28417969 -0.01693726 C72.13553825 0.01027328 80.98632094 0.00145882 89.83766556 -0.02606928 C97.44211373 -0.04877138 105.04638871 -0.05195507 112.65085983 -0.03887594 C117.19055366 -0.03108745 121.72997695 -0.03002318 126.26965332 -0.04655838 C130.53805957 -0.06101999 134.80572459 -0.0509511 139.0740509 -0.0220871 C140.63892894 -0.01548523 142.20386953 -0.01735866 143.76872253 -0.02840042 C145.9085011 -0.04210497 148.04591809 -0.02488683 150.18554688 0 C151.3816156 0.00188513 152.57768433 0.00377026 153.80999756 0.00571251 C158.25635571 0.85794063 159.9275879 2.42542883 163.09277344 5.63491821 C163.78027344 8.63491821 163.78027344 8.63491821 163.09277344 11.63491821 C160.50193388 14.8848679 159.01136669 16.45498232 154.88060665 17.26412392 C153.04803987 17.26695161 153.04803987 17.26695161 151.17845154 17.26983643 C150.49504843 17.27763638 149.81164533 17.28543633 149.10753304 17.29347265 C146.82398401 17.3133722 144.54210545 17.29763841 142.25854492 17.28189087 C140.61898833 17.28866792 138.97943935 17.29757155 137.33990479 17.30844116 C132.89153708 17.33122918 128.44374938 17.32240087 123.99537158 17.30654573 C119.34073496 17.29388624 114.68614797 17.30562678 110.0315094 17.31347656 C102.21598391 17.32257208 94.4006947 17.31058685 86.58520508 17.28677368 C77.54694748 17.25955302 68.50925365 17.26838368 59.47100967 17.29590571 C51.71205041 17.31858723 43.95326096 17.32180186 36.19427925 17.30871236 C31.55962096 17.30091378 26.92522778 17.29988755 22.29058647 17.31639481 C17.93438156 17.33082681 13.5789045 17.32084166 9.22277832 17.29192352 C7.62319714 17.28530624 6.02355482 17.28722142 4.42399788 17.29823685 C2.24187277 17.31188002 0.06208719 17.29479716 -2.11988831 17.26983643 C-3.95188955 17.26700873 -3.95188955 17.26700873 -5.82090092 17.26412392 C-8.90722656 16.63491821 -8.90722656 16.63491821 -11.2923727 14.28273582 C-13.30434512 10.98377724 -13.69757771 9.4286037 -12.90722656 5.63491821 C-8.65696761 1.31871068 -6.21416538 0.00979417 0 0 Z " transform="matrix(1, 0, 0, 1, 44.9072265625, 343.3650817871094)" style="fill: rgb(249, 187, 89);"/>
  <path d="M0 0 C42.24 0 84.48 0 128 0 C128 10.56 128 21.12 128 32 C131.63 32 135.26 32 139 32 C142.1875 33.625 142.1875 33.625 144 36 C144.6875 38.9375 144.6875 38.9375 144 42 C140.86466962 45.2920969 138.18069908 46.95170855 134.00390625 48.61328125 C129.81976058 50.67888434 128.64196559 52.86645489 127.16479492 57.19335938 C126.80478394 58.36608398 126.80478394 58.36608398 126.4375 59.5625 C125.86786527 61.19179533 125.28972027 62.81814011 124.703125 64.44140625 C124.42017578 65.22660645 124.13722656 66.01180664 123.84570312 66.82080078 C117.76078074 82.50036695 104.00918009 92.67125393 89.4375 99.875 C84.30507551 102.13060442 79.55694966 102.7872185 74 103 C74.55723755 102.36167236 74.55723755 102.36167236 75.12573242 101.71044922 C100.94884447 71.89348242 110.12962892 40.27779277 112 1 C75.04 1 38.08 1 0 1 C0 0.67 0 0.34 0 0 Z " fill="#838C92" transform="matrix(1, 0, 0, 1, 56.000000000000014, 376)"/>
  <path d="M0 0 C2 2 2 2 3.6875 5.625 C6.95979351 12.27786143 11.64615548 17.1075624 17.5625 21.5 C24.19178221 26.46913828 28.15356657 32.21703774 31 40 C32.14660966 49.37353395 31.92866796 58.2705684 26 66 C20.33328923 72.40293697 13.6601821 77.35368739 4.91751099 78.2020874 C-0.92967795 78.49319423 -6.77449251 78.36490713 -12.625 78.25 C-14.41013619 78.22990223 -16.19529425 78.21165726 -17.98046875 78.1953125 C-22.3208596 78.15158086 -26.6601846 78.08273589 -31 78 C-30.61183105 77.54761963 -30.22366211 77.09523926 -29.82373047 76.62915039 C-28.74096343 75.36670219 -27.65879851 74.10373738 -26.57714844 72.84033203 C-25.36960581 71.43128306 -24.15828713 70.02546932 -22.9453125 68.62109375 C-5.93168719 48.21204536 -0.92753686 25.90316342 0 0 Z " transform="matrix(1, 0, 0, 1, 305, 186)" style="fill: rgb(121, 156, 61);"/>
  <path d="M0 0 C1.11677492 0.94947559 2.23244654 1.90024897 3.34765625 2.8515625 C3.96906494 3.38088379 4.59047363 3.91020508 5.23071289 4.45556641 C7.2481965 6.21665393 9.14412108 8.06988592 11 10 C9.67289741 12.94209835 8.23210009 15.01614431 5.95016479 17.29034424 C5.32476807 17.9184903 4.69937134 18.54663635 4.05502319 19.19381714 C3.02787704 20.21017746 3.02787704 20.21017746 1.97998047 21.24707031 C1.25792419 21.96941864 0.53586792 22.69176697 -0.20806885 23.43600464 C-2.59493989 25.82148279 -4.9888162 28.19979939 -7.3828125 30.578125 C-9.03948779 32.23107002 -10.69572195 33.88445727 -12.35153198 35.53826904 C-16.71025917 39.88936088 -21.07495924 44.23441313 -25.44091797 48.57824707 C-29.89521505 53.01208371 -34.34385418 57.45158909 -38.79296875 61.890625 C-47.52310855 70.5993166 -56.25956694 79.30164008 -65 88 C-69.12390399 86.1068216 -71.93280604 83.32174632 -75.078125 80.1171875 C-75.64956238 79.54292023 -76.22099976 78.96865295 -76.80975342 78.37698364 C-78.62792945 76.5476419 -80.43901492 74.71145807 -82.25 72.875 C-83.48391329 71.63105226 -84.71828322 70.3875573 -85.953125 69.14453125 C-88.97406743 66.10157633 -91.98867092 63.05246746 -95 60 C-93.39464713 56.58940597 -91.59481099 54.38207516 -88.875 51.75 C-88.15054687 51.04359375 -87.42609375 50.3371875 -86.6796875 49.609375 C-86.12539063 49.07828125 -85.57109375 48.5471875 -85 48 C-78.58930713 53.27101414 -72.81409488 59.09128152 -67 65 C-62.74443702 63.34986235 -59.90420204 60.17055778 -56.76269531 56.98974609 C-56.14763626 56.3749791 -55.53257721 55.7602121 -54.89888 55.1268158 C-52.87051742 53.09706176 -50.84932774 51.06031925 -48.828125 49.0234375 C-47.42180303 47.61338475 -46.01503836 46.20377342 -44.60784912 44.79458618 C-40.90777382 41.08687958 -37.21374433 37.37320576 -33.52093506 33.65826416 C-29.75065747 29.86751741 -25.97470239 26.08243543 -22.19921875 22.296875 C-14.7939064 14.87012159 -7.39496768 7.43705286 0 0 Z " fill="#000000" transform="matrix(1, 0, 0, 1, 450.00000000000006, 339)"/>
  <path d="M0 0 C11.96620797 -0.46554411 21.12631234 -0.23551567 30.30859375 7.98828125 C34.02447106 12.40785819 35.39190396 16.92200545 36.0625 22.578125 C36.21976562 23.82207031 36.37703125 25.06601562 36.5390625 26.34765625 C36.69117188 27.63542969 36.84328125 28.92320313 37 30.25 C38.94791148 46.54312398 41.79088796 61.94308544 55 73 C56.49366701 74.15407664 57.99393939 75.29964436 59.5 76.4375 C64.99087035 80.61431591 71.45925123 85.98103339 73 93 C73.95489944 100.57856702 72.24787658 107.73771813 67.57421875 113.87109375 C66.56941618 114.99533022 65.55244002 116.1088079 64.5234375 117.2109375 C58.79354127 123.93989256 56.99646224 130.6260112 56.4375 139.25 C56.35371094 140.51328125 56.26992188 141.7765625 56.18359375 143.078125 C56.12300781 144.04234375 56.06242187 145.0065625 56 146 C55.67 146 55.34 146 55 146 C54.92523438 145.25621094 54.85046875 144.51242188 54.7734375 143.74609375 C53.85138247 136.08942107 52.24429759 128.91877164 50.1875 121.5 C47.66199163 112.32088166 45.91260359 103.15260721 44.4375 93.75 C39.62189151 63.42647793 29.53878111 35.18773731 15.4375 7.94750977 C13 3.20458197 13 3.20458197 13 1 C8.71 1 4.42 1 0 1 C0 0.67 0 0.34 0 0 Z " transform="matrix(1, 0, 0, 1, 248, 32)" style="fill: rgb(121, 156, 61);"/>
  <path d="M0 0 C1.32 5.28 2.64 10.56 4 16 C-29.17533407 24.41017988 -63.29971291 27.26565823 -97 20 C-96.48517081 14.147205 -95.54642808 8.6702363 -94 3 C-92.16649232 3.14362477 -90.33320217 3.29002705 -88.5 3.4375 C-86.96859375 3.55931641 -86.96859375 3.55931641 -85.40625 3.68359375 C-82.99404212 3.90766352 -80.58628744 4.18232117 -78.18359375 4.4921875 C-54.56168515 7.4948771 -28.86789129 6.48047341 -6.00708008 -0.61889648 C-4 -1 -4 -1 0 0 Z " transform="matrix(1, 0, 0, 1, 311, 441)" style="fill: rgb(225, 72, 37);"/>
  <path d="M0 0 C13.43118022 2.38295133 24.22325101 8.76968558 32.1796875 20.10546875 C35.81614571 26.17880663 39 31.78702638 39 39 C34.83483453 39.29249758 30.6723194 39.4686497 26.5 39.625 C25.32695312 39.70878906 24.15390625 39.79257812 22.9453125 39.87890625 C14.34044714 40.12061595 14.34044714 40.12061595 10.56005859 36.96020508 C8.51251562 34.3965459 6.74153932 31.7785892 5 29 C-0.81380883 21.04380506 -0.81380883 21.04380506 -8.92578125 16.01953125 C-11.36401338 15.78157083 -13.56938016 15.7258303 -16 16 C-16 15.67 -16 15.34 -16 15 C-10.72 15 -5.44 15 0 15 C0 10.05 0 5.1 0 0 Z " transform="matrix(1, 0, 0, 1, 144.00000000000003, 289)" style="fill: rgb(245, 168, 28);"/>
  <path d="M0 0 C21.27925284 -0.11680065 42.55845283 -0.20497222 63.8379612 -0.25906086 C73.71841777 -0.28484269 83.59867517 -0.31999287 93.47900391 -0.37719727 C102.09069208 -0.42703282 110.70223601 -0.45929117 119.31406438 -0.47044247 C123.874054 -0.47696099 128.43363095 -0.49228078 132.99348831 -0.52865028 C137.28631816 -0.56261225 141.57856575 -0.57305264 145.87151718 -0.56553841 C147.44611018 -0.56691287 149.02072284 -0.5768446 150.59519958 -0.59602737 C152.74831091 -0.62097113 154.89923493 -0.61490356 157.05239868 -0.60127258 C158.25626032 -0.60588155 159.46012196 -0.61049051 160.70046425 -0.61523914 C165.16853539 0.21788784 166.82612405 1.77602712 170 5 C170.6875 8 170.6875 8 170 11 C167.22201634 14.62895165 165.79742551 15.88027031 161.21948242 16.56762695 C159.76457099 16.56684241 158.30949596 16.5390037 156.85546875 16.48828125 C156.08568192 16.48120651 155.31589508 16.47413177 154.52278137 16.46684265 C152.07667697 16.43896925 149.63290616 16.37625137 147.1875 16.3125 C145.52412173 16.28740768 143.86070738 16.26459613 142.19726562 16.24414062 C138.13061843 16.18916671 134.06570411 16.10294927 130 16 C129.49564306 14.0636296 128.99666126 12.12585854 128.5 10.1875 C128.2215625 9.10855469 127.943125 8.02960938 127.65625 6.91796875 C127 4 127 4 127 1 C85.09 1 43.18 1 0 1 C0 0.67 0 0.34 0 0 Z " transform="matrix(1, 0, 0, 1, 38, 344)" style="fill: rgb(245, 168, 28);"/>
  <path d="M0 0 C3.37989338 1.24909103 4.69890435 2.18830273 6.875 5.0625 C7.22423596 7.88267427 7.34349209 10.29970263 7.265625 13.109375 C7.25996521 13.88057678 7.25430542 14.65177856 7.24847412 15.4463501 C7.22613589 17.90237279 7.17594763 20.35692055 7.125 22.8125 C7.10493154 24.48044763 7.08668137 26.14841821 7.0703125 27.81640625 C7.02968511 31.8994587 6.95140019 35.97933455 6.875 40.0625 C1.595 40.0625 -3.685 40.0625 -9.125 40.0625 C-9.26303452 35.16738688 -9.38234914 30.27905661 -9.45458984 25.38354492 C-9.48470545 23.71990043 -9.5256085 22.05641398 -9.57763672 20.39331055 C-9.65069321 17.99748746 -9.68450481 15.60376747 -9.7109375 13.20703125 C-9.74190521 12.4672554 -9.77287292 11.72747955 -9.80477905 10.96528625 C-9.80664581 8.08042403 -9.67824654 5.76800338 -7.85919189 3.44833374 C-5.18333305 1.08590066 -3.60615685 0.07212314 0 0 Z " transform="matrix(1, 0, 0, 1, 121.125, 263.9375)" style="fill: rgb(245, 168, 28);"/>
</svg>